<svg xmlns="http://www.w3.org/2000/svg" width="40.5" height="24"><g data-name="Icon ionic-ios-menu" fill="#fff"><path data-name="Path 1" d="M38.813 2.25H1.688C.76 2.25.001 1.744.001 1.125S.76 0 1.689 0h37.124c.928 0 1.688.506 1.688 1.125-.001.619-.76 1.125-1.688 1.125z"/><path data-name="Path 2" d="M38.813 13.125H1.688C.759 13.125 0 12.619 0 12s.759-1.125 1.688-1.125h37.125c.928 0 1.688.506 1.688 1.125-.001.619-.76 1.125-1.688 1.125z"/><path data-name="Path 3" d="M38.813 24H1.688C.76 24 .001 23.494.001 22.875S.76 21.75 1.689 21.75h37.124c.928 0 1.688.506 1.688 1.125-.001.619-.76 1.125-1.688 1.125z"/></g></svg>