<?xml version="1.0" encoding="utf-8"?>
<!-- Generator: Adobe Illustrator 24.1.1, SVG Export Plug-In . SVG Version: 6.00 Build 0)  -->
<svg version="1.2" baseProfile="tiny" xmlns="http://www.w3.org/2000/svg" xmlns:xlink="http://www.w3.org/1999/xlink" x="0px"
	 y="0px" viewBox="0 0 785.77 659.81" xml:space="preserve">
<g id="Layer_1">
</g>
<g id="Layer_2">
	<path fill="#FFFFFF" d="M735.83,659.77L547.19,342.24L360.99,23.28c-0.02-0.05-0.01-0.11,0.04-0.13c0.05-0.03,0.1-0.01,0.13,0.03
		l374.83,636.5c0.02,0.04,0.01,0.09-0.03,0.12C735.91,659.82,735.86,659.81,735.83,659.77z"/>
	<g>
		<path fill="#FFFFFF" d="M366.46,19.9c-1.78-3.03-5.69-4.04-8.72-2.26c-3.03,1.78-4.05,5.68-2.26,8.71
			c1.79,3.03,5.69,4.04,8.72,2.26C367.24,26.83,368.25,22.93,366.46,19.9z"/>
	</g>
	<g>
		<path fill="#FFFFFF" d="M758.19,637.87c-1.78-3.03-5.69-4.04-8.72-2.26c-3.03,1.78-4.05,5.68-2.26,8.71
			c1.79,3.03,5.69,4.04,8.72,2.26C758.96,644.8,759.97,640.9,758.19,637.87z"/>
	</g>
	<path fill="#FFFFFF" d="M598.89,361.61h-27.42l-67.49,161.28h-3.6l-66.4-161.28h-23.1v-1.73h86.25v1.73h-29.59l50.52,122.78
		l51.61-122.78h-29.24v-1.73h58.47V361.61z"/>
	<path fill="#FFFFFF" d="M698.72,428.25H579.63c0,3.55,0,7.09,0,10.28c0,34.39,11.19,83.67,54.14,83.67
		c30.67,0,50.88-18.08,58.1-35.81l2.17,1.07c-7.58,17.73-26.34,36.51-60.27,36.51c-50.53,0-87.34-35.45-87.34-85.44
		s34.65-85.45,80.48-85.45C663.36,353.09,700.16,378.62,698.72,428.25z M665.52,426.48c-0.36-35.1-10.11-71.96-38.61-71.96
		c-34.29,0-45.11,39.35-46.92,71.96H665.52z"/>
	<path fill="#FFFFFF" d="M755.18,646.92c0,0,0.42,0.09,0.75-0.34L518.18,255.65h-1.68L755.18,646.92z"/>
	<path fill="#FFFFFF" d="M207.56,352.75l6.89-11.52l69.64-118.47c0.01-0.65,0.02-1.3,0.02-1.94l-78.42,132.26
		C206.32,352.99,206.94,352.87,207.56,352.75z"/>
	<path fill="#FFFFFF" d="M493.07,349.48v1.81h-86.25v-1.81h27.43V239.41c0-18.04-0.72-54.13-28.51-54.13
		c-33.56,0-48.36,49.08-48.36,76.87v87.33h27.79v1.81h-86.25v-1.81h27.42V185.99h-27.42v-1.8h58.46v58.82
		c4.69-27.79,19.85-62.08,55.94-62.08c27.79,0,52.33,13.72,52.33,63.52v105.02H493.07z"/>
	<path fill="#FFFFFF" d="M616.87,257.45H497.78c0,3.61,0,7.22,0,10.47c0,35.01,11.19,85.17,54.14,85.17
		c30.67,0,50.88-18.41,58.1-36.45l2.17,1.09c-7.58,18.04-26.34,37.17-60.27,37.17c-50.53,0-87.34-36.09-87.34-86.97
		s34.65-86.98,80.48-86.98C581.51,180.94,618.31,206.93,616.87,257.45z M583.67,255.65c-0.36-35.73-10.11-73.26-38.61-73.26
		c-34.29,0-45.11,40.05-46.92,73.26H583.67z"/>
	<path fill="#FFFFFF" d="M396.95,35.86l-84.46,142.46c0.1,0.29,0.21,0.58,0.31,0.87L397.01,35.9c0.02-0.04,0.01-0.09-0.03-0.11
		c-0.04-0.02-0.09-0.01-0.11,0.03l-84.42,142.4c0.01,0.03,0.02,0.06,0.03,0.1L396.95,35.86z"/>
	<path fill="#FFFFFF" d="M14.95,648.44l139.7-237.87v-2.09L14.88,648.4c-0.02,0.04-0.01,0.09,0.03,0.11
		c0.04,0.02,0.09,0.01,0.11-0.03l139.63-237.75v-0.16L14.95,648.44z"/>
	<path fill="#FFFFFF" d="M320.56,224.97c0,68.57-50.17,129.92-125.23,129.92c-75.07,0-125.23-61.35-125.23-129.92
		c0-68.93,50.16-129.92,125.23-129.92C270.39,95.05,320.56,156.05,320.56,224.97z M284.11,224.97c0-52.33-17.68-128.12-88.78-128.12
		c-70.73,0-88.42,75.79-88.42,128.12c0,51.96,17.69,128.11,88.42,128.11C266.42,353.09,284.11,276.94,284.11,224.97z"/>
	<path fill="#FFFFFF" d="M281.59,195.19l-77.4,130.75l-15.79,27.1c0.48,0.03,0.99,0.03,1.48,0.05l91.88-156.46l21.75-37.03
		L393.47,6.44c-0.04-0.02-0.06-0.05-0.1-0.07"/>
	<path fill="#FFFFFF" d="M319.76,442.77v77.59H121.63v-1.81h32.84V269.54h-32.84v-1.81h99.96v1.81h-32.48v249.01h64.96
		c41.87,0,61.71-34.65,63.88-75.79H319.76z"/>
	<path fill="#FFFFFF" d="M20.63,611.55l155.64,0v-0.57l-155.64,0.47c-0.05,0-0.1,0.04-0.1,0.1c0,0.05,0.05,0.1,0.1,0.1l155.64,0
		v-0.1L20.63,611.55z"/>
	<path fill="#FFFFFF" d="M0.01,627.32c0,0.01-0.01,0.01-0.01,0.01c0,0.08,0.04,0.14,0.1,0.14l211.94,0.91v-1.06H0.01z"/>
	<path fill="#FFFFFF" d="M40.45,631.86C40.45,631.86,40.46,631.86,40.45,631.86c0.05,0.03,0.09,0.07,0.14,0.11l167.2-279.71v-2.73
		L40.45,631.86z"/>
	<path fill="#FFFFFF" d="M460.51,441.24c0,43.94-33.56,82.73-83.73,82.73c-50.52,0-84.09-38.79-84.09-82.73s33.56-82.74,84.09-82.74
		C426.95,358.5,460.51,397.3,460.51,441.24z M427.31,441.24c0-33.3-7.58-81.36-50.53-81.36c-42.94,0-50.88,48.06-50.88,81.36
		s7.94,81.01,50.88,81.01C419.73,522.25,427.31,474.54,427.31,441.24z"/>
	<path fill="#FFFFFF" d="M517.62,255.65h-1.26l-15.46-26.08l-14.15-23.89L388.24,39.59c0-0.04,0-0.12,0.04-0.12
		c0.04-0.04,0.08,0,0.12,0.04l98.96,165.52l13.87,23.2L517.62,255.65z"/>
	<path fill="#FFFFFF" d="M759.33,611.48l-103.4,0v-0.57l103.4,0.47c0.04,0,0.07,0.04,0.07,0.1c0,0.05-0.03,0.1-0.07,0.1l-103.4,0
		v-0.1L759.33,611.48z"/>
	<path fill="#FFFFFF" d="M773.03,627.25c0,0.01,0.01,0.01,0.01,0.01c0,0.08-0.03,0.14-0.06,0.14l-140.8,0.91v-1.06H773.03z"/>
	<g>
		<path fill="#FFFFFF" d="M48.95,627.41c-1.78-3.03-5.69-4.04-8.72-2.26c-3.03,1.78-4.05,5.68-2.26,8.71
			c1.79,3.03,5.69,4.04,8.72,2.26C49.72,634.34,50.73,630.44,48.95,627.41z"/>
	</g>
	<g>
		<path fill="#FFFFFF" d="M26.11,606.95c-1.78-3.03-5.69-4.04-8.72-2.26c-3.03,1.78-4.05,5.68-2.26,8.71
			c1.79,3.03,5.69,4.04,8.72,2.26C26.88,613.88,27.89,609.98,26.11,606.95z"/>
	</g>
	<g>
		<path fill="#FFFFFF" d="M398.96,3.14c-1.78-3.03-5.69-4.04-8.72-2.26c-3.03,1.78-4.05,5.68-2.26,8.71
			c1.79,3.03,5.69,4.04,8.72,2.26C399.73,10.07,400.74,6.17,398.96,3.14z"/>
	</g>
	<g>
		<path fill="#FFFFFF" d="M784.89,621.04c-1.78-3.03-5.69-4.04-8.72-2.26c-3.03,1.78-4.05,5.68-2.26,8.71
			c1.79,3.03,5.69,4.04,8.72,2.26C785.67,627.97,786.68,624.07,784.89,621.04z"/>
	</g>
	<g>
		<path fill="#FFFFFF" d="M280.92,580.84c0,0.68-0.37,1.02-1.12,1.02c-1.29,0-6.42-0.26-15.37-0.77c-0.2,8.61-0.31,14.62-0.31,18.03
			c0,4.02,0.16,10.06,0.49,18.13c0.32,8.07,0.49,14.12,0.49,18.13c0,0.65-0.15,1.06-0.46,1.22c-0.1,0.07-0.58,0.15-1.43,0.26
			c-2.04,0.27-5.04,0.41-8.99,0.41c-4.39,0-7.47-0.14-9.25-0.41c-0.95-0.17-1.43-0.7-1.43-1.58c0-4.02,0.17-10.05,0.51-18.08
			c0.34-8.04,0.51-14.06,0.51-18.08c0-2.65-0.14-8.58-0.41-17.77c-6.81,0.68-12.24,1.02-16.29,1.02c-0.54,0-0.82-0.17-0.82-0.51
			c0-0.44,0.24-1.75,0.72-3.93c0.54-2.38,0.85-3.83,0.92-4.34c0.1-1.6,0.22-3.2,0.36-4.8c0.24-2.55,0.65-3.83,1.23-3.83
			c0.07,0,0.31,0.02,0.72,0.05c5.51,0.71,13.67,1.07,24.46,1.07c3.06,0,8.72-0.32,16.96-0.97c4.43-0.34,6.66-0.51,6.69-0.51
			c0.68,0,1.07,0.04,1.18,0.13s0.17,0.42,0.2,1c0,0.92-0.03,2.2-0.1,3.83c-0.07,1.8-0.1,3.08-0.1,3.83c0,0.85,0.11,2.1,0.33,3.75
			C280.81,578.79,280.92,580.03,280.92,580.84z"/>
		<path fill="#FFFFFF" d="M353.76,635.6c0,0.61-0.43,1.04-1.28,1.28c-1.02,0.27-4.19,0.41-9.5,0.41c-4.87,0-8-0.14-9.4-0.41
			c-1.16-0.24-1.89-1-2.2-2.3c-1.16-4.9-2.06-7.53-2.71-7.87c-0.54-0.24-5.11-0.36-13.69-0.36c-5.79,0-8.87,0.15-9.25,0.46
			c-0.58,0.54-1.22,2.37-1.94,5.46c-0.65,2.83-1.43,4.36-2.35,4.6c-1.16,0.27-5.04,0.41-11.65,0.41c-5.21,0-7.81-0.49-7.81-1.48
			c0-0.89,3.85-11.76,11.54-32.64c8.34-22.58,12.87-34.99,13.59-37.23c0.41-1.29,0.89-1.94,1.43-1.94c0.92,0,2.34,0.09,4.26,0.26
			c1.92,0.17,3.36,0.25,4.32,0.25c0.92,0,2.27-0.06,4.06-0.18c1.79-0.12,3.12-0.18,4.01-0.18c0.65,0,1.24,0.56,1.79,1.68
			c1.67,3.58,6.54,15.83,14.61,36.78C349.71,623.68,353.76,634.68,353.76,635.6z M317.55,589.07c-0.72,1.5-1.93,4.75-3.63,9.76
			c-1.84,5.31-2.76,8.43-2.76,9.35c0,0.61,1.02,0.95,3.06,1.02c1.06,0.07,2.79,0.1,5.21,0.1c2.25,0,3.49-0.27,3.73-0.82
			c0.07-0.17,0.1-0.41,0.1-0.71c0-1.12-0.78-4.22-2.35-9.3C319.38,593.56,318.26,590.43,317.55,589.07z"/>
		<path fill="#FFFFFF" d="M408.72,580.84c0,0.68-0.38,1.02-1.12,1.02c-1.29,0-6.42-0.26-15.37-0.77c-0.2,8.61-0.31,14.62-0.31,18.03
			c0,4.02,0.16,10.06,0.49,18.13c0.32,8.07,0.49,14.12,0.49,18.13c0,0.65-0.15,1.06-0.46,1.22c-0.1,0.07-0.58,0.15-1.43,0.26
			c-2.04,0.27-5.04,0.41-8.99,0.41c-4.39,0-7.47-0.14-9.25-0.41c-0.95-0.17-1.43-0.7-1.43-1.58c0-4.02,0.17-10.05,0.51-18.08
			c0.34-8.04,0.51-14.06,0.51-18.08c0-2.65-0.14-8.58-0.41-17.77c-6.81,0.68-12.24,1.02-16.29,1.02c-0.54,0-0.82-0.17-0.82-0.51
			c0-0.44,0.24-1.75,0.72-3.93c0.54-2.38,0.85-3.83,0.92-4.34c0.1-1.6,0.22-3.2,0.36-4.8c0.24-2.55,0.65-3.83,1.23-3.83
			c0.07,0,0.31,0.02,0.72,0.05c5.51,0.71,13.67,1.07,24.46,1.07c3.06,0,8.72-0.32,16.96-0.97c4.43-0.34,6.66-0.51,6.69-0.51
			c0.68,0,1.07,0.04,1.18,0.13s0.17,0.42,0.2,1c0,0.92-0.03,2.2-0.1,3.83c-0.07,1.8-0.1,3.08-0.1,3.83c0,0.85,0.11,2.1,0.33,3.75
			C408.61,578.79,408.72,580.03,408.72,580.84z"/>
		<path fill="#FFFFFF" d="M463.93,580.84c0,0.68-0.37,1.02-1.12,1.02c-1.29,0-6.42-0.26-15.37-0.77c-0.2,8.61-0.31,14.62-0.31,18.03
			c0,4.02,0.16,10.06,0.49,18.13c0.32,8.07,0.49,14.12,0.49,18.13c0,0.65-0.15,1.06-0.46,1.22c-0.1,0.07-0.58,0.15-1.43,0.26
			c-2.04,0.27-5.04,0.41-8.99,0.41c-4.39,0-7.47-0.14-9.25-0.41c-0.95-0.17-1.43-0.7-1.43-1.58c0-4.02,0.17-10.05,0.51-18.08
			c0.34-8.04,0.51-14.06,0.51-18.08c0-2.65-0.14-8.58-0.41-17.77c-6.81,0.68-12.24,1.02-16.29,1.02c-0.54,0-0.82-0.17-0.82-0.51
			c0-0.44,0.24-1.75,0.72-3.93c0.54-2.38,0.85-3.83,0.92-4.34c0.1-1.6,0.22-3.2,0.36-4.8c0.24-2.55,0.65-3.83,1.23-3.83
			c0.07,0,0.31,0.02,0.72,0.05c5.51,0.71,13.67,1.07,24.46,1.07c3.06,0,8.72-0.32,16.96-0.97c4.43-0.34,6.66-0.51,6.69-0.51
			c0.68,0,1.07,0.04,1.18,0.13c0.1,0.08,0.17,0.42,0.2,1c0,0.92-0.03,2.2-0.1,3.83c-0.07,1.8-0.1,3.08-0.1,3.83
			c0,0.85,0.11,2.1,0.33,3.75C463.82,578.79,463.93,580.03,463.93,580.84z"/>
		<path fill="#FFFFFF" d="M540.34,601.12c0,10.62-3.39,19.53-10.16,26.71c-6.91,7.29-15.66,10.93-26.25,10.93
			c-10.52,0-19.26-3.68-26.2-11.03c-6.81-7.18-10.22-16.05-10.22-26.61c0-10.59,3.4-19.49,10.22-26.71
			c6.95-7.39,15.68-11.08,26.2-11.08c10.45,0,19.17,3.69,26.15,11.08C536.92,581.7,540.34,590.6,540.34,601.12z M520.98,601.02
			c0-5.11-1.55-9.45-4.65-13.02c-3.23-3.75-7.37-5.62-12.41-5.62c-4.8,0-8.87,1.94-12.21,5.82c-3.23,3.75-4.85,8.05-4.85,12.92
			c0,5.21,1.51,9.55,4.55,13.02c3.2,3.65,7.37,5.47,12.51,5.47c4.8,0,8.89-1.92,12.26-5.77
			C519.38,610.16,520.98,605.89,520.98,601.02z"/>
		<path fill="#FFFFFF" d="M618.89,601.12c0,10.62-3.39,19.53-10.16,26.71c-6.91,7.29-15.66,10.93-26.25,10.93
			c-10.52,0-19.26-3.68-26.2-11.03c-6.81-7.18-10.22-16.05-10.22-26.61c0-10.59,3.4-19.49,10.22-26.71
			c6.95-7.39,15.68-11.08,26.2-11.08c10.45,0,19.17,3.69,26.15,11.08C615.47,581.7,618.89,590.6,618.89,601.12z M599.53,601.02
			c0-5.11-1.55-9.45-4.65-13.02c-3.23-3.75-7.37-5.62-12.41-5.62c-4.8,0-8.87,1.94-12.21,5.82c-3.23,3.75-4.85,8.05-4.85,12.92
			c0,5.21,1.51,9.55,4.55,13.02c3.2,3.65,7.37,5.47,12.51,5.47c4.8,0,8.89-1.92,12.26-5.77
			C597.93,610.16,599.53,605.89,599.53,601.02z"/>
	</g>
</g>
</svg>
