<svg xmlns="http://www.w3.org/2000/svg" width="15" height="15"><path data-name="Icon awesome-phone-square-alt" d="M13.393 0H1.607A1.607 1.607 0 000 1.607v11.786A1.607 1.607 0 001.607 15h11.786A1.607 1.607 0 0015 13.393V1.607A1.607 1.607 0 0013.393 0zm-.549 10.291l-.5 2.176a.5.5 0 01-.489.389A9.711 9.711 0 012.143 3.15a.526.526 0 01.389-.489l2.176-.5a.61.61 0 01.113-.013.545.545 0 01.462.3l1 2.344a.6.6 0 01.041.2.569.569 0 01-.184.389L4.875 6.416a7.765 7.765 0 003.709 3.709l1.038-1.269a.569.569 0 01.389-.184.6.6 0 01.2.041l2.344 1a.544.544 0 01.3.462.583.583 0 01-.011.116z" fill="#fff"/></svg>