<svg xmlns="http://www.w3.org/2000/svg" width="15" height="15" viewBox="0 0 15 15">
  <path id="Icon_awesome-phone-square-alt" data-name="Icon awesome-phone-square-alt" d="M13.393,2.25H1.607A1.607,1.607,0,0,0,0,3.857V15.643A1.607,1.607,0,0,0,1.607,17.25H13.393A1.607,1.607,0,0,0,15,15.643V3.857A1.607,1.607,0,0,0,13.393,2.25Zm-.549,10.291-.5,2.176a.5.5,0,0,1-.489.389A9.711,9.711,0,0,1,2.143,5.4a.526.526,0,0,1,.389-.489l2.176-.5a.61.61,0,0,1,.113-.013.545.545,0,0,1,.462.3l1,2.344a.6.6,0,0,1,.041.2.569.569,0,0,1-.184.389L4.875,8.666a7.765,7.765,0,0,0,3.709,3.709l1.038-1.269a.569.569,0,0,1,.389-.184.6.6,0,0,1,.2.041l2.344,1a.544.544,0,0,1,.3.462A.583.583,0,0,1,12.844,12.541Z" transform="translate(0 -2.25)" fill="#fff"/>
</svg>
