<svg xmlns="http://www.w3.org/2000/svg" width="120" height="26.838" viewBox="0 0 120 26.838"><g transform="translate(0.025 0.001)"><g transform="translate(-0.025 -0.001)"><path d="M119.975,12.039c-3.91,5.68-10.5,9.236-17.336,10.593a49.6,49.6,0,0,1-20.773-1.092,103.188,103.188,0,0,1-19.372-7.274C56.283,11.4,50.175,8.4,44.022,5.9a55.873,55.873,0,0,0-9.487-2.951,28.8,28.8,0,0,0-9.8-.531,22.44,22.44,0,0,0-9.28,3.187,15.964,15.964,0,0,0-5.946,7.672,11.8,11.8,0,0,0,0,9.634,6.344,6.344,0,0,0,3.777,3.054,1.475,1.475,0,0,0,1.8-.561,3.423,3.423,0,0,0,.266-2.125,9.369,9.369,0,0,0-1.829-4.1,6.875,6.875,0,0,0-3.733-2.316c-2.951-.679-6.388.266-9.516,1.475a.207.207,0,0,1-.266-.03.207.207,0,0,1,0-.236A14.665,14.665,0,0,1,10.045,15.2a7.834,7.834,0,0,1,6.713,8.07A4.677,4.677,0,0,1,15.7,26a2.493,2.493,0,0,1-2.788.664,6.979,6.979,0,0,1-3.984-3.393,9.974,9.974,0,0,1-1.136-5.075,15.964,15.964,0,0,1,.885-5.12,17.7,17.7,0,0,1,6.093-8.454A25.258,25.258,0,0,1,24.444.605,31.971,31.971,0,0,1,34.978.3a58.424,58.424,0,0,1,10.21,2.42,156.39,156.39,0,0,1,18.855,8.262l4.588,2.213,4.6,2.007a48.688,48.688,0,0,0,4.677,1.829,45.735,45.735,0,0,0,4.721,1.549,51.151,51.151,0,0,0,19.7,2.08,32.916,32.916,0,0,0,9.56-2.7,23.607,23.607,0,0,0,4.308-2.582,22.278,22.278,0,0,0,3.777-3.334Z" transform="translate(0.025 0.001)" fill="#00111a"/></g></g></svg>