<svg xmlns="http://www.w3.org/2000/svg" xmlns:xlink="http://www.w3.org/1999/xlink" viewBox="0 0 785.77 659.81"><defs><style>.cls-1{fill:url(#linear-gradient);}.cls-2{fill:url(#linear-gradient-2);}.cls-3{fill:url(#linear-gradient-3);}.cls-4{fill:url(#linear-gradient-4);}.cls-5{fill:url(#linear-gradient-5);}.cls-6{fill:url(#linear-gradient-6);}.cls-7{fill:url(#linear-gradient-7);}.cls-8{fill:url(#linear-gradient-8);}.cls-9{fill:url(#linear-gradient-9);}.cls-10{fill:url(#linear-gradient-10);}.cls-11{fill:url(#linear-gradient-11);}.cls-12{fill:url(#linear-gradient-12);}.cls-13{fill:url(#linear-gradient-13);}.cls-14{fill:url(#linear-gradient-14);}.cls-15{fill:url(#linear-gradient-15);}.cls-16{fill:url(#linear-gradient-16);}.cls-17{fill:url(#linear-gradient-17);}.cls-18{fill:url(#linear-gradient-18);}.cls-19{fill:url(#linear-gradient-19);}.cls-20{fill:url(#linear-gradient-20);}.cls-21{fill:url(#linear-gradient-21);}.cls-22{fill:url(#linear-gradient-22);}.cls-23{fill:url(#linear-gradient-23);}.cls-24{fill:url(#linear-gradient-24);}.cls-25{fill:url(#linear-gradient-25);}.cls-26{fill:url(#linear-gradient-26);}.cls-27{fill:url(#linear-gradient-27);}.cls-28{fill:url(#linear-gradient-28);}.cls-29{fill:url(#linear-gradient-29);}.cls-30{fill:url(#linear-gradient-30);}.cls-31{fill:url(#linear-gradient-31);}</style><linearGradient id="linear-gradient" x1="360.97" y1="341.47" x2="735.99" y2="341.47" gradientUnits="userSpaceOnUse"><stop offset="0" stop-color="#010101"/><stop offset="0.18" stop-color="#040103"/><stop offset="0.31" stop-color="#0e0308"/><stop offset="0.44" stop-color="#1e0511"/><stop offset="0.55" stop-color="#35081d"/><stop offset="0.66" stop-color="#530b2d"/><stop offset="0.76" stop-color="#771041"/><stop offset="0.86" stop-color="#a31658"/><stop offset="0.96" stop-color="#d41c72"/><stop offset="1" stop-color="#ed1f80"/></linearGradient><linearGradient id="linear-gradient-2" x1="354.6" y1="23.13" x2="367.34" y2="23.13" xlink:href="#linear-gradient"/><linearGradient id="linear-gradient-3" x1="746.33" y1="641.1" x2="759.07" y2="641.1" xlink:href="#linear-gradient"/><linearGradient id="linear-gradient-4" x1="410.87" y1="441.39" x2="598.89" y2="441.39" xlink:href="#linear-gradient"/><linearGradient id="linear-gradient-5" x1="546.42" y1="438.53" x2="698.76" y2="438.53" xlink:href="#linear-gradient"/><linearGradient id="linear-gradient-6" x1="750.82" y1="649.61" x2="521.65" y2="252.68" gradientUnits="userSpaceOnUse"><stop offset="0" stop-color="#010101"/><stop offset="0.08" stop-color="#040103"/><stop offset="0.15" stop-color="#0e0307"/><stop offset="0.21" stop-color="#1e0510"/><stop offset="0.26" stop-color="#35091c"/><stop offset="0.31" stop-color="#530d2b"/><stop offset="0.36" stop-color="#77133d"/><stop offset="0.4" stop-color="#a21a53"/><stop offset="0.43" stop-color="#bf1e62"/><stop offset="1" stop-color="#ed1f80"/></linearGradient><linearGradient id="linear-gradient-7" x1="205.69" y1="286.96" x2="284.11" y2="286.96" xlink:href="#linear-gradient"/><linearGradient id="linear-gradient-8" x1="298.91" y1="266.11" x2="493.07" y2="266.11" xlink:href="#linear-gradient"/><linearGradient id="linear-gradient-9" x1="464.58" y1="267.92" x2="616.91" y2="267.92" xlink:href="#linear-gradient"/><linearGradient id="linear-gradient-10" x1="312.45" y1="107.48" x2="397.02" y2="107.48" xlink:href="#linear-gradient"/><linearGradient id="linear-gradient-11" x1="14.87" y1="528.49" x2="154.64" y2="528.49" xlink:href="#linear-gradient"/><linearGradient id="linear-gradient-12" x1="70.1" y1="224.97" x2="320.56" y2="224.97" xlink:href="#linear-gradient"/><linearGradient id="linear-gradient-13" x1="188.41" y1="179.73" x2="393.47" y2="179.73" xlink:href="#linear-gradient"/><linearGradient id="linear-gradient-14" x1="121.63" y1="394.05" x2="319.76" y2="394.05" xlink:href="#linear-gradient"/><linearGradient id="linear-gradient-15" x1="-3041.57" y1="-8014.1" x2="-3176.41" y2="-8014.1" gradientTransform="translate(-3492.63 -8645.12) rotate(180) scale(1.16)" xlink:href="#linear-gradient"/><linearGradient id="linear-gradient-16" x1="0" y1="627.85" x2="212.03" y2="627.85" xlink:href="#linear-gradient"/><linearGradient id="linear-gradient-17" x1="40.45" y1="490.75" x2="207.8" y2="490.75" gradientUnits="userSpaceOnUse"><stop offset="0" stop-color="#010101"/><stop offset="0.06" stop-color="#18040d"/><stop offset="0.18" stop-color="#540c2e"/><stop offset="0.36" stop-color="#b21860"/><stop offset="0.46" stop-color="#ed1f80"/><stop offset="0.63" stop-color="#eb1f7f"/><stop offset="0.71" stop-color="#e41e7b"/><stop offset="0.76" stop-color="#d71c74"/><stop offset="0.81" stop-color="#c51a6b"/><stop offset="0.85" stop-color="#ae175e"/><stop offset="0.89" stop-color="#91134f"/><stop offset="0.92" stop-color="#6f0f3c"/><stop offset="0.96" stop-color="#470a27"/><stop offset="0.98" stop-color="#1c040f"/><stop offset="1" stop-color="#010101"/></linearGradient><linearGradient id="linear-gradient-18" x1="292.7" y1="441.24" x2="460.51" y2="441.24" xlink:href="#linear-gradient"/><linearGradient id="linear-gradient-19" x1="388.24" y1="147.55" x2="517.62" y2="147.55" gradientUnits="userSpaceOnUse"><stop offset="0" stop-color="#010101"/><stop offset="0.15" stop-color="#31071b"/><stop offset="0.38" stop-color="#73103e"/><stop offset="0.59" stop-color="#a8165b"/><stop offset="0.77" stop-color="#cd1b6f"/><stop offset="0.91" stop-color="#e51e7b"/><stop offset="1" stop-color="#ed1f80"/></linearGradient><linearGradient id="linear-gradient-20" x1="-11760.81" y1="-8014.12" x2="-11850.39" y2="-8014.12" gradientTransform="matrix(1.16, 0, 0, -1.16, 14343.47, -8645.12)" xlink:href="#linear-gradient"/><linearGradient id="linear-gradient-21" x1="10077.81" y1="627.78" x2="10218.67" y2="627.78" gradientTransform="matrix(-1, 0, 0, 1, 10850.84, 0)" xlink:href="#linear-gradient"/><linearGradient id="linear-gradient-22" x1="37.09" y1="630.63" x2="49.83" y2="630.63" xlink:href="#linear-gradient"/><linearGradient id="linear-gradient-23" x1="14.25" y1="610.18" x2="26.99" y2="610.18" xlink:href="#linear-gradient"/><linearGradient id="linear-gradient-24" x1="387.1" y1="6.36" x2="399.84" y2="6.36" xlink:href="#linear-gradient"/><linearGradient id="linear-gradient-25" x1="773.03" y1="624.27" x2="785.77" y2="624.27" xlink:href="#linear-gradient"/><linearGradient id="linear-gradient-26" x1="227.04" y1="600.94" x2="280.92" y2="600.94" xlink:href="#linear-gradient"/><linearGradient id="linear-gradient-27" x1="282" y1="600.64" x2="353.76" y2="600.64" xlink:href="#linear-gradient"/><linearGradient id="linear-gradient-28" x1="354.83" y1="600.94" x2="408.72" y2="600.94" xlink:href="#linear-gradient"/><linearGradient id="linear-gradient-29" x1="410.04" y1="600.94" x2="463.93" y2="600.94" xlink:href="#linear-gradient"/><linearGradient id="linear-gradient-30" x1="467.5" y1="601.04" x2="540.34" y2="601.04" xlink:href="#linear-gradient"/><linearGradient id="linear-gradient-31" x1="546.06" y1="601.04" x2="618.89" y2="601.04" xlink:href="#linear-gradient"/></defs><g id="Layer_2" data-name="Layer 2"><path class="cls-1" d="M735.83,659.77,547.19,342.24,361,23.28a.1.1,0,0,1,0-.14.1.1,0,0,1,.13,0L736,659.68a.09.09,0,1,1-.15.09Z"/><path class="cls-2" d="M366.46,19.9a6.37,6.37,0,1,0-2.26,8.71A6.37,6.37,0,0,0,366.46,19.9Z"/><path class="cls-3" d="M758.19,637.87a6.37,6.37,0,1,0-2.26,8.71A6.37,6.37,0,0,0,758.19,637.87Z"/><path class="cls-4" d="M598.89,361.61H571.47L504,522.89h-3.6L434,361.61h-23.1v-1.73h86.25v1.73H467.53l50.52,122.78,51.61-122.78H540.42v-1.73h58.47Z"/><path class="cls-5" d="M698.72,428.25H579.63v10.28c0,34.39,11.19,83.67,54.13,83.67,30.68,0,50.89-18.08,58.1-35.81l2.17,1.07C686.45,505.18,667.68,524,633.76,524c-50.52,0-87.34-35.45-87.34-85.44s34.65-85.44,80.49-85.44C663.36,353.09,700.16,378.62,698.72,428.25Zm-33.2-1.77c-.36-35.1-10.11-72-38.61-72-34.29,0-45.12,39.35-46.92,72Z"/><path class="cls-6" d="M755.18,646.92a.79.79,0,0,0,.75-.34L518.18,255.65H516.5Z"/><path class="cls-7" d="M207.56,352.75l6.89-11.51,69.63-118.48,0-1.94L205.69,353.09C206.32,353,206.94,352.87,207.56,352.75Z"/><path class="cls-8" d="M493.07,349.48v1.8H406.82v-1.8h27.43V239.41c0-18-.73-54.13-28.51-54.13-33.57,0-48.37,49.08-48.37,76.86v87.34h27.79v1.8H298.91v-1.8h27.43V186H298.91V184.2h58.46V243c4.7-27.79,19.85-62.08,55.94-62.08,27.79,0,52.33,13.72,52.33,63.52v105Z"/><path class="cls-9" d="M616.87,257.45H497.78v10.47c0,35,11.19,85.17,54.14,85.17,30.67,0,50.88-18.41,58.09-36.45l2.17,1.08c-7.57,18-26.34,37.17-60.26,37.17-50.53,0-87.34-36.09-87.34-87s34.64-87,80.48-87C581.51,180.94,618.31,206.93,616.87,257.45Zm-33.2-1.8c-.36-35.73-10.11-73.26-38.61-73.26-34.29,0-45.11,40.06-46.92,73.26Z"/><path class="cls-10" d="M397,35.86,312.49,178.31l.31.87L397,35.9a.08.08,0,0,0,0-.11.08.08,0,0,0-.11,0l-84.43,142.4a.36.36,0,0,1,0,.09Z"/><path class="cls-11" d="M15,648.44,154.64,410.57v-2.1L14.88,648.4a.07.07,0,0,0,0,.1.07.07,0,0,0,.1,0L154.64,410.72v-.15Z"/><path class="cls-12" d="M320.56,225c0,68.57-50.17,129.92-125.23,129.92S70.1,293.54,70.1,225c0-68.92,50.16-129.92,125.23-129.92S320.56,156.05,320.56,225Zm-36.45,0c0-52.32-17.69-128.11-88.78-128.11-70.73,0-88.42,75.79-88.42,128.11,0,52,17.69,128.12,88.42,128.12C266.42,353.09,284.11,276.94,284.11,225Z"/><path class="cls-13" d="M281.59,195.19l-77.4,130.74L188.41,353c.48,0,1,0,1.48,0l91.88-156.46,21.75-37,90-153.16a.7.7,0,0,1-.1-.08"/><path class="cls-14" d="M319.76,442.77v77.59H121.63v-1.8h32.84v-249H121.63v-1.8h100v1.8H189.12v249h64.95c41.87,0,61.72-34.65,63.88-75.79Z"/><path class="cls-15" d="M20.63,611.55H176.28V611l-155.65.47a.1.1,0,0,0-.1.1.11.11,0,0,0,.1.1H176.28v-.1Z"/><path class="cls-16" d="M0,627.32H0c0,.08,0,.14.1.14l211.93.91v-1.06Z"/><path class="cls-17" d="M40.45,631.86h0l.14.11L207.8,352.26v-2.73Z"/><path class="cls-18" d="M460.51,441.24c0,43.94-33.56,82.73-83.73,82.73-50.52,0-84.08-38.79-84.08-82.73s33.56-82.74,84.08-82.74C427,358.5,460.51,397.3,460.51,441.24Zm-33.2,0c0-33.3-7.58-81.36-50.53-81.36s-50.88,48.06-50.88,81.36,7.94,81,50.88,81S427.31,474.54,427.31,441.24Z"/><path class="cls-19" d="M517.62,255.65h-1.25l-15.46-26.08-14.15-23.89L388.24,39.59s0-.12,0-.12.08,0,.12,0l99,165.52,13.87,23.2Z"/><path class="cls-20" d="M759.33,611.48H655.92v-.57l103.41.47s.06,0,.06.1,0,.1-.06.1H655.92v-.1Z"/><path class="cls-21" d="M773,627.25h0c0,.08,0,.14-.06.14l-140.8.91v-1.06Z"/><path class="cls-22" d="M49,627.41a6.37,6.37,0,1,0-2.26,8.71A6.37,6.37,0,0,0,49,627.41Z"/><path class="cls-23" d="M26.11,607a6.37,6.37,0,1,0-2.26,8.71A6.37,6.37,0,0,0,26.11,607Z"/><path class="cls-24" d="M399,3.14a6.37,6.37,0,1,0-2.26,8.71A6.37,6.37,0,0,0,399,3.14Z"/><path class="cls-25" d="M784.89,621a6.37,6.37,0,1,0-2.25,8.71A6.37,6.37,0,0,0,784.89,621Z"/><path class="cls-26" d="M280.92,580.84c0,.69-.37,1-1.12,1q-1.94,0-15.37-.77-.31,12.92-.31,18,0,6,.48,18.13t.49,18.13c0,.65-.15,1.06-.46,1.23a6,6,0,0,1-1.43.25,71.85,71.85,0,0,1-9,.41,68.9,68.9,0,0,1-9.24-.41,1.49,1.49,0,0,1-1.43-1.58q0-6,.51-18.08t.51-18.08q0-4-.41-17.78-10.22,1-16.29,1c-.55,0-.82-.17-.82-.51a30.5,30.5,0,0,1,.71-3.94c.55-2.38.85-3.83.92-4.34.11-1.6.22-3.2.36-4.8.24-2.55.65-3.83,1.23-3.83l.71,0a205.27,205.27,0,0,0,24.47,1.07q4.59,0,16.95-1l6.69-.51a2.86,2.86,0,0,1,1.18.13c.1.08.17.42.2,1,0,.91,0,2.19-.1,3.83-.07,1.8-.1,3.08-.1,3.83a30.89,30.89,0,0,0,.33,3.75A30.91,30.91,0,0,1,280.92,580.84Z"/><path class="cls-27" d="M353.76,635.6c0,.61-.43,1-1.28,1.27-1,.28-4.19.41-9.5.41a63.38,63.38,0,0,1-9.4-.41,2.72,2.72,0,0,1-2.19-2.29q-1.74-7.37-2.71-7.87T315,626.35c-5.79,0-8.87.16-9.24.46q-.87.83-1.94,5.47c-.65,2.82-1.43,4.36-2.35,4.59q-1.74.42-11.65.41-7.81,0-7.81-1.48,0-1.32,11.54-32.64,12.51-33.85,13.59-37.23c.4-1.29.88-1.94,1.43-1.94.91,0,2.34.09,4.26.25s3.36.26,4.32.26,2.27-.06,4.06-.18,3.12-.18,4-.18c.64,0,1.24.56,1.79,1.69q2.49,5.35,14.6,36.77Q353.77,634.22,353.76,635.6Zm-36.21-46.53q-1.08,2.25-3.63,9.75-2.76,8-2.76,9.35,0,.92,3.06,1c1.06.07,2.8.1,5.22.1,2.24,0,3.49-.27,3.72-.81a1.94,1.94,0,0,0,.11-.72c0-1.12-.79-4.22-2.35-9.29A74,74,0,0,0,317.55,589.07Z"/><path class="cls-28" d="M408.72,580.84c0,.69-.38,1-1.13,1q-1.93,0-15.37-.77-.32,12.92-.31,18,0,6,.49,18.13t.48,18.13c0,.65-.15,1.06-.46,1.23a6,6,0,0,1-1.43.25,71.85,71.85,0,0,1-9,.41,68.9,68.9,0,0,1-9.24-.41,1.49,1.49,0,0,1-1.43-1.58q0-6,.51-18.08t.51-18.08q0-4-.41-17.78-10.21,1-16.29,1c-.55,0-.82-.17-.82-.51a29.49,29.49,0,0,1,.72-3.94c.54-2.38.85-3.83.92-4.34.1-1.6.22-3.2.35-4.8.24-2.55.65-3.83,1.23-3.83l.71,0a205.38,205.38,0,0,0,24.47,1.07q4.59,0,17-1l6.69-.51a2.83,2.83,0,0,1,1.17.13c.1.08.17.42.21,1,0,.91,0,2.19-.11,3.83-.06,1.8-.1,3.08-.1,3.83a30.89,30.89,0,0,0,.33,3.75A29.37,29.37,0,0,1,408.72,580.84Z"/><path class="cls-29" d="M463.93,580.84c0,.69-.38,1-1.12,1q-1.95,0-15.38-.77-.3,12.92-.31,18,0,6,.49,18.13t.48,18.13c0,.65-.15,1.06-.46,1.23a5.91,5.91,0,0,1-1.43.25,71.67,71.67,0,0,1-9,.41,69,69,0,0,1-9.25-.41,1.5,1.5,0,0,1-1.43-1.58q0-6,.51-18.08t.51-18.08q0-4-.41-17.78-10.22,1-16.29,1c-.54,0-.82-.17-.82-.51a29.49,29.49,0,0,1,.72-3.94c.54-2.38.85-3.83.92-4.34.1-1.6.22-3.2.35-4.8.24-2.55.65-3.83,1.23-3.83l.72,0a205.08,205.08,0,0,0,24.46,1.07q4.6,0,17-1l6.69-.51a2.93,2.93,0,0,1,1.18.13c.1.08.16.42.2,1,0,.91,0,2.19-.1,3.83-.07,1.8-.1,3.08-.1,3.83a30.89,30.89,0,0,0,.33,3.75A30.91,30.91,0,0,1,463.93,580.84Z"/><path class="cls-30" d="M540.34,601.12q0,15.93-10.17,26.71-10.36,10.93-26.25,10.93t-26.2-11Q467.51,617,467.5,601.12t10.22-26.71q10.42-11.08,26.2-11.08t26.15,11.08Q540.34,585.33,540.34,601.12ZM521,601a19.17,19.17,0,0,0-4.65-13,16.09,16.09,0,0,0-24.61.2,20.23,20.23,0,0,0-.31,25.94,16.46,16.46,0,0,0,24.77-.3A18.94,18.94,0,0,0,521,601Z"/><path class="cls-31" d="M618.89,601.12q0,15.93-10.16,26.71-10.37,10.93-26.25,10.93t-26.21-11Q546.06,617,546.06,601.12t10.21-26.71q10.43-11.08,26.21-11.08t26.15,11.08Q618.89,585.33,618.89,601.12Zm-19.36-.1a19.21,19.21,0,0,0-4.64-13,15.67,15.67,0,0,0-12.41-5.62,15.5,15.5,0,0,0-12.21,5.82,20.23,20.23,0,0,0-.31,25.94,16.46,16.46,0,0,0,24.77-.3A18.94,18.94,0,0,0,599.53,601Z"/></g></svg>