<svg xmlns="http://www.w3.org/2000/svg" width="35" height="35"><path data-name="Icon zocial-instagram" d="M3.107 34.894a4.161 4.161 0 01-1.915-1.087 3.851 3.851 0 01-1.06-1.824c-.123-.486-.13-.944-.13-14.451C-.004 2.355-.025 3.189.372 2.334A4.082 4.082 0 012.362.358c.882-.39.021-.369 15.312-.349l14.088.013.438.15a4.148 4.148 0 012.626 2.627l.15.438.014 14.088c.021 15.647.055 14.478-.445 15.49a4.063 4.063 0 01-1.73 1.73c-1 .492.137.458-15.346.451-11.838-.006-14.013-.02-14.362-.102zm27.26-4.165c.561-.4.574-.438.595-3.043.021-2.537.007-2.667-.41-3.071-.376-.369-.554-.39-3.03-.383l-2.257.007-.309.164a1.682 1.682 0 00-.5.48l-.205.3-.007 2.264c-.007 1.238.021 2.366.055 2.5a1.277 1.277 0 00.7.862l.342.171 2.373-.021 2.366-.021zm-11.5-6.641a6.788 6.788 0 005.239-5.266 8.354 8.354 0 00.075-2.223 6.888 6.888 0 00-3.508-5.033 7.339 7.339 0 00-1.805-.67c-.13-.014-.4-.055-.609-.089a6.756 6.756 0 00-6.1 2.612 6.691 6.691 0 00.13 8.309 6.819 6.819 0 004.51 2.455 7.137 7.137 0 002.065-.095zM6.956 19.65a10.853 10.853 0 01.9-6.941 10.06 10.06 0 012.045-2.811 10.666 10.666 0 019.308-3.036 10.834 10.834 0 018.713 7.933 10.621 10.621 0 01.28 3.83 7.53 7.53 0 01-.28 1.477c-.021.034-.014.062.021.068.26.027 2.92.021 2.968-.014s.055-3.057.048-7.632l-.021-7.6-.205-.294a1.709 1.709 0 00-.513-.451l-.304-.156-12.488.021-12.481.013-.28.185a1.8 1.8 0 00-.438.445l-.164.26-.021 7.556c-.007 4.158-.007 7.584.014 7.625a7.359 7.359 0 001.525.068h1.5z" fill="#7393a7"/></svg>