<svg xmlns="http://www.w3.org/2000/svg" width="35" height="20.792"><path data-name="Icon awesome-vk" d="M34.202 1.41c.24-.812 0-1.41-1.157-1.41h-3.826a1.643 1.643 0 00-1.663 1.085 32.066 32.066 0 01-4.7 7.829c-.89.89-1.3 1.176-1.787 1.176-.24 0-.611-.286-.611-1.1V1.41c0-.975-.273-1.41-1.079-1.41h-6.02a.923.923 0 00-.975.877c0 .923 1.377 1.137 1.52 3.736v5.64c0 1.235-.221 1.462-.708 1.462-1.3 0-4.457-4.769-6.328-10.227C6.491.429 6.121 0 5.14 0H1.313C.221 0 .001.513.001 1.085c0 1.014 1.3 6.049 6.049 12.7 3.164 4.542 7.621 7 11.676 7 2.437 0 2.735-.546 2.735-1.488 0-4.34-.221-4.75 1-4.75.565 0 1.54.286 3.814 2.476 2.6 2.6 3.028 3.762 4.483 3.762h3.827c1.092 0 1.644-.546 1.325-1.624-.728-2.268-5.646-6.933-5.867-7.245-.565-.728-.4-1.053 0-1.7.004-.002 4.679-6.577 5.159-8.806z" fill="#7393a7"/></svg>