<svg xmlns="http://www.w3.org/2000/svg" width="10" height="10" viewBox="0 0 10 10">
  <path id="Icon_awesome-phone-square-alt" data-name="Icon awesome-phone-square-alt" d="M8.929,2.25H1.071A1.071,1.071,0,0,0,0,3.321v7.857A1.071,1.071,0,0,0,1.071,12.25H8.929A1.071,1.071,0,0,0,10,11.179V3.321A1.071,1.071,0,0,0,8.929,2.25ZM8.563,9.111l-.335,1.451a.335.335,0,0,1-.326.26A6.474,6.474,0,0,1,1.429,4.348a.35.35,0,0,1,.26-.326l1.451-.335a.407.407,0,0,1,.075-.009.363.363,0,0,1,.308.2l.67,1.563a.4.4,0,0,1,.027.132.379.379,0,0,1-.123.259l-.846.692A5.177,5.177,0,0,0,5.723,9l.692-.846a.379.379,0,0,1,.259-.123.4.4,0,0,1,.132.027l1.562.67a.363.363,0,0,1,.2.308A.389.389,0,0,1,8.563,9.111Z" transform="translate(0 -2.25)" fill="#7393a7"/>
</svg>
