<svg xmlns="http://www.w3.org/2000/svg" width="16.317" height="17.908" viewBox="0 0 16.317 17.908">
  <g id="Icon_feather-share-2" data-name="Icon feather-share-2" transform="translate(-4 -2.333)">
    <path id="Path_9" data-name="Path 9" d="M29.772,5.72a2.386,2.386,0,1,1-2.386-2.386A2.386,2.386,0,0,1,29.772,5.72Z" transform="translate(-10.455)" fill="none" stroke="#f11e9c" stroke-linecap="round" stroke-linejoin="round" stroke-width="2"/>
    <path id="Path_10" data-name="Path 10" d="M9.772,17.386A2.386,2.386,0,1,1,7.386,15a2.386,2.386,0,0,1,2.386,2.386Z" transform="translate(0 -6.099)" fill="none" stroke="#f11e9c" stroke-linecap="round" stroke-linejoin="round" stroke-width="2"/>
    <path id="Path_11" data-name="Path 11" d="M29.772,29.053a2.386,2.386,0,1,1-2.386-2.386A2.386,2.386,0,0,1,29.772,29.053Z" transform="translate(-10.455 -12.198)" fill="none" stroke="#f11e9c" stroke-linecap="round" stroke-linejoin="round" stroke-width="2"/>
    <path id="Path_12" data-name="Path 12" d="M14.317,22.517l5.433,3.166" transform="translate(-4.87 -10.028)" fill="none" stroke="#f11e9c" stroke-linecap="round" stroke-linejoin="round" stroke-width="2"/>
    <path id="Path_13" data-name="Path 13" d="M19.741,10.85l-5.425,3.166" transform="translate(-4.87 -3.929)" fill="none" stroke="#f11e9c" stroke-linecap="round" stroke-linejoin="round" stroke-width="2"/>
  </g>
</svg>
