<svg xmlns="http://www.w3.org/2000/svg" width="35" height="31.25" viewBox="0 0 35 31.25">
  <path id="Icon_awesome-get-pocket" data-name="Icon awesome-get-pocket" d="M31.844,4.5H3.172A3.2,3.2,0,0,0,0,7.672V18.234a17.5,17.5,0,1,0,35,0V7.672A3.146,3.146,0,0,0,31.844,4.5ZM19.188,25.477a2.379,2.379,0,0,1-3.312,0C6.992,16.969,6.9,17.266,6.9,15.852a2.4,2.4,0,0,1,2.4-2.4c1.328,0,1.258.3,8.219,6.977,7.078-6.789,6.922-6.977,8.242-6.977a2.4,2.4,0,0,1,2.4,2.4c0,1.391-.227,1.227-8.969,9.625Z" transform="translate(0 -4.5)" fill="#7393a7"/>
</svg>
