<svg xmlns="http://www.w3.org/2000/svg" width="35" height="20.792" viewBox="0 0 35 20.792">
  <path id="Icon_awesome-vk" data-name="Icon awesome-vk" d="M35.655,8.91c.24-.812,0-1.41-1.157-1.41H30.672a1.643,1.643,0,0,0-1.663,1.085,32.066,32.066,0,0,1-4.7,7.829c-.89.89-1.3,1.176-1.787,1.176-.24,0-.611-.286-.611-1.1V8.91c0-.975-.273-1.41-1.079-1.41H14.812a.923.923,0,0,0-.975.877c0,.923,1.377,1.137,1.52,3.736v5.64c0,1.235-.221,1.462-.708,1.462-1.3,0-4.457-4.769-6.328-10.227C7.944,7.929,7.574,7.5,6.593,7.5H2.766c-1.092,0-1.312.513-1.312,1.085,0,1.014,1.3,6.049,6.049,12.7,3.164,4.542,7.621,7,11.676,7,2.437,0,2.735-.546,2.735-1.488,0-4.34-.221-4.75,1-4.75.565,0,1.54.286,3.814,2.476,2.6,2.6,3.028,3.762,4.483,3.762h3.827c1.092,0,1.644-.546,1.325-1.624-.728-2.268-5.646-6.933-5.867-7.245-.565-.728-.4-1.053,0-1.7C30.5,17.714,35.175,11.139,35.655,8.91Z" transform="translate(-1.453 -7.5)" fill="#7393a7"/>
</svg>
