<svg xmlns="http://www.w3.org/2000/svg" width="35" height="35" viewBox="0 0 35 35"><path d="M3.151,35.011a4.161,4.161,0,0,1-1.915-1.087A3.851,3.851,0,0,1,.176,32.1c-.123-.486-.13-.944-.13-14.451C.04,2.472.019,3.306.416,2.451A4.082,4.082,0,0,1,2.406.475c.882-.39.021-.369,15.312-.349L31.806.139l.438.15A4.148,4.148,0,0,1,34.87,2.916l.15.438.014,14.088c.021,15.647.055,14.478-.445,15.49a4.063,4.063,0,0,1-1.73,1.73c-1,.492.137.458-15.346.451C5.675,35.107,3.5,35.093,3.151,35.011Zm27.26-4.165c.561-.4.574-.438.595-3.043.021-2.537.007-2.667-.41-3.071-.376-.369-.554-.39-3.03-.383l-2.257.007L25,24.52A1.682,1.682,0,0,0,24.5,25l-.205.3-.007,2.264c-.007,1.238.021,2.366.055,2.5a1.277,1.277,0,0,0,.7.862l.342.171,2.373-.021,2.366-.021Zm-11.5-6.641a6.788,6.788,0,0,0,5.239-5.266,8.354,8.354,0,0,0,.075-2.223,6.888,6.888,0,0,0-3.508-5.033,7.339,7.339,0,0,0-1.805-.67c-.13-.014-.4-.055-.609-.089a6.756,6.756,0,0,0-6.1,2.612,6.691,6.691,0,0,0,.13,8.309A6.819,6.819,0,0,0,16.843,24.3,7.137,7.137,0,0,0,18.908,24.205ZM7,19.767a10.853,10.853,0,0,1,.9-6.941,10.06,10.06,0,0,1,2.045-2.811,10.666,10.666,0,0,1,9.308-3.036,10.834,10.834,0,0,1,8.713,7.933,10.621,10.621,0,0,1,.28,3.83,7.53,7.53,0,0,1-.28,1.477c-.021.034-.014.062.021.068.26.027,2.92.021,2.968-.014s.055-3.057.048-7.632l-.021-7.6-.205-.294a1.709,1.709,0,0,0-.513-.451L29.96,4.14l-12.488.021L4.991,4.174l-.28.185a1.8,1.8,0,0,0-.438.445l-.164.26L4.088,12.62c-.007,4.158-.007,7.584.014,7.625a7.359,7.359,0,0,0,1.525.068h1.5Z" transform="translate(-0.044 -0.117)" fill="#fff"/></svg>