<svg xmlns="http://www.w3.org/2000/svg" width="40.5" height="24" viewBox="0 0 40.5 24">
  <g id="Icon_ionic-ios-menu" data-name="Icon ionic-ios-menu" transform="translate(-4.5 -10.125)">
    <path id="Path_1" data-name="Path 1" d="M43.313,12.375H6.188c-.928,0-1.687-.506-1.687-1.125h0c0-.619.759-1.125,1.688-1.125H43.313c.928,0,1.688.506,1.688,1.125h0C45,11.869,44.241,12.375,43.313,12.375Z" fill="#fff"/>
    <path id="Path_2" data-name="Path 2" d="M43.313,19.125H6.188C5.259,19.125,4.5,18.619,4.5,18h0c0-.619.759-1.125,1.688-1.125H43.313c.928,0,1.688.506,1.688,1.125h0C45,18.619,44.241,19.125,43.313,19.125Z" transform="translate(0 4.125)" fill="#fff"/>
    <path id="Path_3" data-name="Path 3" d="M43.313,25.875H6.188c-.928,0-1.687-.506-1.687-1.125h0c0-.619.759-1.125,1.688-1.125H43.313c.928,0,1.688.506,1.688,1.125h0C45,25.369,44.241,25.875,43.313,25.875Z" transform="translate(0 8.25)" fill="#fff"/>
  </g>
</svg>
